Coordinates
version=1
nRows=16
nColumns=40
inDegrees=yes

Units are S.I. units (second, meters, Newtons, ...)
Angles are in degrees.

endheader
time	pelvis_tilt	pelvis_list	pelvis_rotation	pelvis_tx	pelvis_ty	pelvis_tz	hip_flexion_r	hip_adduction_r	hip_rotation_r	knee_angle_r	knee_angle_r_beta	ankle_angle_r	subtalar_angle_r	mtp_angle_r	hip_flexion_l	hip_adduction_l	hip_rotation_l	knee_angle_l	knee_angle_l_beta	ankle_angle_l	subtalar_angle_l	mtp_angle_l	lumbar_extension	lumbar_bending	lumbar_rotation	arm_flex_r	arm_add_r	arm_rot_r	elbow_flex_r	pro_sup_r	wrist_flex_r	wrist_dev_r	arm_flex_l	arm_add_l	arm_rot_l	elbow_flex_l	pro_sup_l	wrist_flex_l	wrist_dev_l
      0.76000000	      2.04187815	     -1.07915152	      1.64603548	     -0.66027218	      0.88424683	      1.39119398	     25.80418396	     -1.12185140	    -19.35001442	    -16.66145731	     -0.29079729	     -3.94523044	      5.11602875	      0.78528598	    -11.34637387	     -0.44952776	      8.14390958	    -15.09079358	     -0.26338403	     15.25044016	     -6.22363745	     -7.22944008	    -12.02731894	      3.91548037	     -4.64116428	      5.07878935	     -9.14010764	     11.63675134	     14.83128984	     89.95437384	      0.00000000	      0.00000000	     22.25969088	     12.70741062	    -11.18759954	     39.72564564	     89.95437384	      0.00000000	      0.00000000
      0.77000000	      1.96407449	     -1.19351826	      1.88678292	     -0.65031393	      0.88331702	      1.39151487	     25.79927683	     -1.04483033	    -19.14169036	    -17.13736849	     -0.29910351	     -4.07631209	      4.81706200	      0.67340385	    -11.63651799	     -0.16184714	      7.73211047	    -15.69999093	     -0.27401653	     15.23550260	     -6.22950941	     -7.23247273	    -11.90843397	      4.10846970	     -4.69169717	      4.92236666	     -9.16462742	     11.68913847	     14.77087075	     89.95437384	      0.00000000	      0.00000000	     22.08355973	     12.47566889	    -11.30072273	     39.74987544	     89.95437384	      0.00000000	      0.00000000
      0.78000000	      2.01752717	     -1.57090457	      2.24950933	     -0.63985913	      0.88273731	      1.39212808	     25.33409597	     -0.56417085	    -18.97115193	    -17.32019122	     -0.30229436	     -5.30334586	      2.50761406	     -1.04556458	    -11.95816080	      0.57727832	      7.81824150	    -16.48523867	     -0.28772169	     14.79634309	     -6.83639145	     -8.40222773	    -11.87736570	      4.58075088	     -4.82818995	      4.69647210	     -9.25297801	     12.16696409	     14.83952085	     89.95437384	      0.00000000	      0.00000000	     21.78770850	     12.28826161	    -11.42928992	     39.76840172	     89.95437384	      0.00000000	      0.00000000
      0.79000000	      1.96672667	     -1.64838578	      2.39904473	     -0.62910568	      0.88206584	      1.39268707	     25.26474597	     -0.56351717	    -19.16029153	    -18.40946226	     -0.32130573	     -6.70077870	      1.99435162	     -0.86357995	    -12.34431685	      0.81695952	      7.53432178	    -17.05944544	     -0.29774349	     14.55532505	     -6.67799226	     -8.30801706	    -11.68236567	      4.71701681	     -4.85419023	      4.52658598	     -9.24929436	     12.21577019	     14.67689865	     89.95437384	      0.00000000	      0.00000000	     21.42593497	     12.05710864	    -11.53546965	     39.55412605	     89.95437384	      0.00000000	      0.00000000
      0.80000000	      2.07079944	     -2.15594394	      2.94610075	     -0.61835716	      0.88224355	      1.39318957	     24.58310960	     -0.08342988	    -19.67380539	    -18.43268874	     -0.32171111	     -9.38679521	     -0.01319137	     -0.42597793	    -12.64098246	      1.70007230	      7.17340576	    -17.93604234	     -0.31304299	     14.05462354	     -6.74124230	     -8.63238457	    -11.67156583	      5.37872031	     -5.15620112	      4.38379963	     -9.29167078	     12.33563253	     14.60879803	     89.95437384	      0.00000000	      0.00000000	     21.01855286	     11.82276398	    -11.60770256	     39.31541662	     89.95437384	      0.00000000	      0.00000000
      0.81000000	      1.80912089	     -2.09403086	      2.90010357	     -0.60778051	      0.88222427	      1.39401577	     24.63662753	     -0.09486928	    -19.31733476	    -18.93994252	     -0.33056436	     -9.34161669	     -0.04116350	     -0.41748079	    -12.68686855	      1.71287560	      6.87724019	    -18.64288452	     -0.32537972	     13.56180718	     -6.47859587	     -8.43513476	    -11.37417003	      5.32330730	     -4.99441284	      4.06210492	     -9.36124998	     12.29297234	     14.89255367	     89.95437384	      0.00000000	      0.00000000	     20.42140085	     11.61766026	    -11.58994335	     39.33213190	     89.95437384	      0.00000000	      0.00000000
      0.82000000	      1.74416641	     -2.74539482	      3.03675783	     -0.59720733	      0.88301158	      1.39495083	     24.42678579	      0.57190203	    -19.71097274	    -19.52442782	     -0.34076555	     -9.08685616	     -0.84117264	     -0.43097975	    -12.62329683	      2.63317856	      6.73312868	    -19.84335712	     -0.34633192	     12.62051515	     -5.84765852	     -8.25741935	    -11.18205613	      6.10709746	     -4.87460030	      4.27683898	     -9.35958181	     12.54855334	     14.06562915	     89.95437384	      0.00000000	      0.00000000	     20.15899010	     11.07117893	    -11.51255905	     38.18150689	     89.95437384	      0.00000000	      0.00000000
      0.83000000	      1.57117240	     -3.01921115	      3.02855627	     -0.58659107	      0.88395409	      1.39585573	     24.32997425	      0.95570887	    -19.32421176	    -20.30394884	     -0.35437076	     -8.85471224	     -1.17934545	     -0.44527482	    -12.47078322	      2.99876948	      6.19230446	    -21.01733387	     -0.36682168	     11.61261352	     -5.47797149	     -8.01946468	    -10.98837042	      6.44783650	     -4.66750805	      4.17073577	     -9.46244075	     12.63839971	     14.00480401	     89.95437384	      0.00000000	      0.00000000	     19.58427654	     10.72673165	    -11.44896496	     37.75466342	     89.95437384	      0.00000000	      0.00000000
      0.84000000	      1.37790428	     -3.50748231	      3.15038776	     -0.57551675	      0.88529608	      1.39711886	     23.96558939	      1.71476471	    -18.81079030	    -20.62815061	     -0.36002915	     -8.07260984	     -1.70172891	     -0.50026260	    -12.05732334	      3.80759157	      6.31299109	    -22.53484484	     -0.39330724	     10.32132195	     -4.84412574	     -7.79165689	    -10.60414658	      6.99081658	     -4.62631953	      4.17891368	     -9.43995930	     12.90704977	     13.53120533	     89.95437384	      0.00000000	      0.00000000	     19.04381375	     10.30790301	    -11.29496008	     36.68308671	     89.95437384	      0.00000000	      0.00000000
      0.85000000	      1.24851791	     -3.69349360	      3.00497034	     -0.56464663	      0.88705536	      1.39820159	     23.69901001	      2.14596787	    -18.07783223	    -21.28585742	     -0.37150830	     -7.60409913	     -1.78696989	     -0.53049235	    -11.71140946	      4.04513443	      5.90013143	    -24.06933924	     -0.42008922	      8.82092194	     -4.37059057	     -7.47707597	    -10.44712969	      7.21916192	     -4.36447140	      4.11905329	     -9.54263110	     13.02361948	     13.51915004	     89.95437384	      0.00000000	      0.00000000	     18.32643775	      9.95877365	    -11.18895335	     36.06161359	     89.95437384	      0.00000000	      0.00000000
      0.86000000	      0.90011386	     -4.47002153	      2.96688411	     -0.55332924	      0.88860045	      1.40009264	     23.15706647	      3.55676387	    -16.70711321	    -20.84420114	     -0.36379994	     -7.02227167	     -4.31485981	      0.06424922	    -10.55727457	      5.53210086	      7.35396358	    -26.60218769	     -0.46429576	      6.62329690	     -5.67852254	     -7.80917539	     -9.81837559	      8.01591884	     -4.23618779	      4.12085311	     -9.61465087	     13.71787592	     13.14361873	     89.95437384	      0.00000000	      0.00000000	     17.63630504	      9.49585170	    -10.79940098	     34.74120606	     89.95437384	      0.00000000	      0.00000000
      0.87000000	      0.85397657	     -4.46124151	      2.87338314	     -0.54205394	      0.89082411	      1.40128439	     22.49522101	      3.72776804	    -16.30189607	    -21.12662499	     -0.36872917	     -6.15652042	     -4.30155212	      0.06589840	    -10.01814524	      5.67490542	      7.27703943	    -28.40859906	     -0.49582359	      4.26272966	     -4.80501670	     -7.37554111	     -9.64514330	      8.00135384	     -4.05231115	      4.15819101	     -9.61181216	     13.91329085	     12.85821158	     89.95437384	      0.00000000	      0.00000000	     17.00298603	      9.20758516	    -10.92237250	     33.58547893	     89.95437384	      0.00000000	      0.00000000
      0.88000000	      0.60345826	     -4.92665561	      2.77531884	     -0.53068050	      0.89256391	      1.40312193	     21.81981016	      4.55001388	    -15.88877139	    -20.88773661	     -0.36455978	     -5.37239261	     -4.61698775	      0.80622699	     -8.85418346	      6.76416692	      8.25996507	    -30.91178538	     -0.53951243	      1.39984922	     -5.61552922	     -7.61323325	     -9.17656851	      8.44253873	     -3.78075639	      3.94374318	     -9.87468342	     15.61718262	     12.94340502	     89.95437384	      0.00000000	      0.00000000	     16.30238891	      8.90076086	    -11.06847949	     32.39296102	     89.95437384	      0.00000000	      0.00000000
      0.89000000	      0.50691879	     -4.93616060	      2.69006633	     -0.51950761	      0.89456173	      1.40456653	     20.97963241	      4.73547546	    -15.79194183	    -20.72091228	     -0.36164814	     -4.53198380	     -4.17679592	      0.81460642	     -7.86035351	      7.08510104	      8.45759452	    -33.16441099	     -0.57882817	     -1.48654697	     -4.49423411	     -7.11889359	     -8.93926756	      8.41098818	     -3.56634733	      3.92837882	     -9.90205365	     15.83099347	     12.84716475	     89.95437384	      0.00000000	      0.00000000	     15.64517410	      8.65780661	    -11.21361332	     31.19212842	     89.95437384	      0.00000000	      0.00000000
      0.90000000	      0.35829496	     -4.99817101	      2.63326110	     -0.50831735	      0.89619434	      1.40613374	     20.19521016	      4.94197304	    -15.91745536	    -20.52244906	     -0.35818431	     -3.78506837	     -3.59169727	      0.78782744	     -6.64395445	      7.59520439	      8.83954463	    -35.59577465	     -0.62126347	     -4.87671743	     -3.33360846	     -6.60490332	     -8.62193913	      8.41444582	     -3.36107794	      3.86115213	     -9.96591408	     16.05996490	     12.89799438	     89.95437384	      0.00000000	      0.00000000	     14.97383516	      8.46265514	    -11.45762522	     29.98404633	     89.95437384	      0.00000000	      0.00000000
      0.91000000	      0.23527593	     -5.01972329	      2.61197807	     -0.49751603	      0.89756200	      1.40770406	     19.40800705	      5.10556228	    -16.07208577	    -20.31790653	     -0.35461437	     -3.07712338	     -2.98993632	      0.71480688	     -5.29473544	      8.06520997	      9.07029420	    -38.07583406	     -0.66454867	     -8.02926618	     -2.08598897	     -6.13053805	     -8.38333385	      8.37255920	     -3.20928701	      3.83179590	    -10.05198572	     16.28512711	     13.07886327	     89.95437384	      0.00000000	      0.00000000	     14.36991148	      8.31984055	    -11.71511752	     28.73980376	     89.95437384	      0.00000000	      0.00000000
